<svg xmlns="http://www.w3.org/2000/svg" xmlns:xlink="http://www.w3.org/1999/xlink" width="100%" height="100%" version="1.1" viewBox="0 0 50 50" xml:space="preserve" style="fill-rule:evenodd;clip-rule:evenodd;stroke-linejoin:round;stroke-miterlimit:2"><rect id="Artboard1" width="50" height="50" x="0" y="0" style="fill:none"/><clipPath id="_clip1"><rect id="Artboard11" width="50" height="50" x="0" y="0"/></clipPath><g clip-path="url(#_clip1)"><path d="M24.97,0c13.781,0 24.969,11.252 24.969,25.111c0,13.86 -11.188,25.112 -24.969,25.112c-13.781,-0 -24.97,-11.252 -24.97,-25.112c0,-13.859 11.189,-25.111 24.97,-25.111Zm14.549,25.217l0,7.068c0,0.459 -0.197,0.556 -0.581,0.331c-0.513,-0.31 -1.048,-0.584 -1.6,-0.819c-1.666,-0.667 -3.472,-0.909 -5.254,-0.703c-1.945,0.253 -3.854,0.735 -5.688,1.434c-1.829,0.621 -3.621,1.292 -5.487,1.812c-1.545,0.461 -3.153,0.674 -4.764,0.63c-1.785,-0.07 -3.521,-0.614 -5.03,-1.577c-0.385,-0.234 -0.615,-0.661 -0.599,-1.113l0,-13.887c0,-0.225 0,-0.492 0.202,-0.607c0.201,-0.115 0.407,0.074 0.58,0.189c1.638,1.113 3.579,1.692 5.556,1.655c1.413,-0.058 2.812,-0.32 4.151,-0.777c1.903,-0.593 3.741,-1.379 5.611,-2.046c1.456,-0.563 2.948,-1.024 4.467,-1.38c2.634,-0.62 5.41,-0.105 7.65,1.421c0.516,0.319 0.823,0.895 0.8,1.504l-0,6.897l-0.014,-0.032Z" style="fill:#118de9"/></g></svg>