<?xml version="1.0" encoding="UTF-8" standalone="no"?><!DOCTYPE svg PUBLIC "-//W3C//DTD SVG 1.1//EN" "http://www.w3.org/Graphics/SVG/1.1/DTD/svg11.dtd"><svg width="100%" height="100%" viewBox="0 0 50 50" version="1.1" xmlns="http://www.w3.org/2000/svg" xmlns:xlink="http://www.w3.org/1999/xlink" xml:space="preserve" xmlns:serif="http://www.serif.com/" style="fill-rule:evenodd;clip-rule:evenodd;stroke-linejoin:round;stroke-miterlimit:2;"><rect id="Artboard1" x="0" y="0" width="50" height="50" style="fill:none;"/><g id="Artboard11" serif:id="Artboard1"><g><circle cx="24.822" cy="24.822" r="24.822" style="fill:#00aed6;"/><path d="M39.302,24.098c-0.207,-3.103 -2.896,-5.585 -5.999,-5.378l-15.72,-0c-0.621,-0 -1.035,-0.414 -1.035,-1.034c0,-0.62 0.414,-1.034 1.035,-1.034l15.927,0c-0.104,-2.068 -1.655,-4.241 -3.62,-4.551c-4.654,-0.827 -9.411,-0.827 -13.962,0c-2.586,0.414 -4.551,2.999 -4.965,5.482c-0.724,4.868 -0.724,9.817 0,14.686c0.518,2.793 2.792,5.068 5.689,5.481c5.792,0.725 11.584,0.725 17.272,0c2.586,-0.309 4.241,-2.688 4.758,-5.17c0.517,-2.896 0.723,-5.689 0.62,-8.482Zm-5.171,3.414l-0,0.93c-0,0.621 -0.414,1.034 -1.034,1.034c-0.621,0 -1.035,-0.413 -1.035,-1.033l0,-0.931c-0.309,-0.311 -0.517,-0.725 -0.517,-1.139c-0,-0.827 0.724,-1.551 1.552,-1.551c0.827,0 1.551,0.725 1.551,1.552c0,0.414 -0.207,0.828 -0.517,1.138Z" style="fill:#fff;"/></g></g></svg>