<svg xmlns="http://www.w3.org/2000/svg" width="189" height="90" viewBox="0 0 189 90"><g fill="none" fill-rule="evenodd"><path fill="#FFF" fill-opacity=".01" d="M0 0h189v90H0z"/><g transform="translate(67.053 1.125)"><circle cx="27" cy="27" r="27" fill="#00AED6" fill-rule="nonzero"/><path fill="#FFF" d="M42.75 26.212c-.225-3.375-3.15-6.075-6.525-5.85h-17.1c-.675 0-1.125-.45-1.125-1.124 0-.675.45-1.125 1.125-1.125H36.45c-.113-2.25-1.8-4.613-3.938-4.95-5.062-.9-10.237-.9-15.187 0-2.813.45-4.95 3.262-5.4 5.962a54.306 54.306 0 0 0 0 15.975c.563 3.038 3.037 5.512 6.188 5.962 6.3.788 12.6.788 18.787 0 2.813-.337 4.613-2.924 5.175-5.624.563-3.15.787-6.188.675-9.226zm-5.625 3.713v1.012c0 .675-.45 1.125-1.125 1.125s-1.125-.45-1.125-1.124v-1.013c-.337-.338-.563-.788-.563-1.238 0-.9.788-1.687 1.688-1.687.9 0 1.688.788 1.688 1.688 0 .45-.226.9-.563 1.237z"/></g></g></svg>